<svg width="55.000000" height="55.000000" viewBox="0 0 55 55" fill="none" xmlns="http://www.w3.org/2000/svg" xmlns:xlink="http://www.w3.org/1999/xlink">
	<desc>
			Created with Pixso.
	</desc>
	<defs/>
	<mask id="mask_73_22" fill="white">
		<path id="листать" d="M27.5 0C12.3121 0 0 12.3122 0 27.5C0 42.6879 12.3121 55 27.5 55C42.6879 55 55 42.6879 55 27.5C55 12.3122 42.6879 0 27.5 0ZM27.5 3.5C14.2451 3.5 3.5 14.2452 3.5 27.5C3.5 40.7548 14.2451 51.5 27.5 51.5C40.7549 51.5 51.5 40.7548 51.5 27.5C51.5 14.2452 40.7549 3.5 27.5 3.5ZM41.2871 26.2243C41.5149 26.4619 41.6934 26.742 41.8124 27.0486C42.0625 27.6568 42.0625 28.3389 41.8124 28.9471C41.6934 29.2537 41.5149 29.5338 41.2871 29.7714L28.782 42.2611C28.5494 42.4952 28.2728 42.6811 27.968 42.8079C27.6633 42.9347 27.3364 43 27.0062 43C26.676 43 26.3491 42.9347 26.0444 42.8079C25.7396 42.6811 25.463 42.4952 25.2305 42.2611C24.9961 42.0289 24.8101 41.7526 24.683 41.4482C24.556 41.1438 24.4907 40.8173 24.4907 40.4875C24.4907 40.1578 24.556 39.8313 24.683 39.5269C24.8101 39.2225 24.9961 38.9462 25.2305 38.7141L33.4839 30.4958L14.5011 30.4958C13.8378 30.4958 13.2015 30.2326 12.7325 29.7642C12.2635 29.2957 12 28.6603 12 27.9979C12 27.3354 12.2635 26.7 12.7325 26.2316C13.2015 25.7631 13.8378 25.4999 14.5011 25.4999L33.4839 25.4999L25.2305 17.2817C24.7595 16.8113 24.495 16.1733 24.495 15.5082C24.495 15.1788 24.5599 14.8527 24.6862 14.5483C24.8124 14.244 24.9973 13.9675 25.2305 13.7346C25.7014 13.2643 26.3402 13 27.0062 13C27.3361 13 27.6626 13.0649 27.9673 13.1909C28.272 13.317 28.5488 13.5017 28.782 13.7346L41.2871 26.2243Z" clip-rule="evenodd" fill="" fill-opacity="1.000000" fill-rule="evenodd"/>
	</mask>
	<path id="листать" d="M27.5 0C12.3121 0 0 12.3122 0 27.5C0 42.6879 12.3121 55 27.5 55C42.6879 55 55 42.6879 55 27.5C55 12.3122 42.6879 0 27.5 0ZM27.5 3.5C14.2451 3.5 3.5 14.2452 3.5 27.5C3.5 40.7548 14.2451 51.5 27.5 51.5C40.7549 51.5 51.5 40.7548 51.5 27.5C51.5 14.2452 40.7549 3.5 27.5 3.5ZM41.2871 26.2243C41.5149 26.4619 41.6934 26.742 41.8124 27.0486C42.0625 27.6568 42.0625 28.3389 41.8124 28.9471C41.6934 29.2537 41.5149 29.5338 41.2871 29.7714L28.782 42.2611C28.5494 42.4952 28.2728 42.6811 27.968 42.8079C27.6633 42.9347 27.3364 43 27.0062 43C26.676 43 26.3491 42.9347 26.0444 42.8079C25.7396 42.6811 25.463 42.4952 25.2305 42.2611C24.9961 42.0289 24.8101 41.7526 24.683 41.4482C24.556 41.1438 24.4907 40.8173 24.4907 40.4875C24.4907 40.1578 24.556 39.8313 24.683 39.5269C24.8101 39.2225 24.9961 38.9462 25.2305 38.7141L33.4839 30.4958L14.5011 30.4958C13.8378 30.4958 13.2015 30.2326 12.7325 29.7642C12.2635 29.2957 12 28.6603 12 27.9979C12 27.3354 12.2635 26.7 12.7325 26.2316C13.2015 25.7631 13.8378 25.4999 14.5011 25.4999L33.4839 25.4999L25.2305 17.2817C24.7595 16.8113 24.495 16.1733 24.495 15.5082C24.495 15.1788 24.5599 14.8527 24.6862 14.5483C24.8124 14.244 24.9973 13.9675 25.2305 13.7346C25.7014 13.2643 26.3402 13 27.0062 13C27.3361 13 27.6626 13.0649 27.9673 13.1909C28.272 13.317 28.5488 13.5017 28.782 13.7346L41.2871 26.2243Z" clip-rule="evenodd" fill="#000000" fill-opacity="1.000000" fill-rule="evenodd" mask="url(#mask_73_22)"/>
	<path id="листать" d="M0 27.5C0 12.3122 12.3121 0 27.5 0C42.6879 0 55 12.3122 55 27.5C55 42.6879 42.6879 55 27.5 55C12.3121 55 0 42.6879 0 27.5ZM17.1349 2.47713Q21.9079 0.5 27.5 0.5Q33.0916 0.5 37.8645 2.47688Q42.6377 4.45392 46.5919 8.40814Q50.546 12.3623 52.523 17.1353Q54.5 21.9082 54.5 27.5Q54.5 33.092 52.5229 37.865Q50.5459 42.6379 46.5919 46.5919Q42.638 50.5458 37.8651 52.5229Q33.0921 54.5 27.5 54.5Q21.9083 54.5 17.1354 52.523Q12.3623 50.546 8.40808 46.5919Q4.45399 42.6377 2.47697 37.8647Q0.5 33.0918 0.5 27.5Q0.5 21.908 2.47709 17.135Q4.45411 12.3621 8.40808 8.40814Q12.362 4.45417 17.1349 2.47713ZM36.9049 4.7939Q32.574 3 27.5 3Q22.426 3 18.0951 4.7939Q13.7639 6.58787 10.1759 10.1759Q6.588 13.7638 4.79402 18.0947Q3 22.4258 3 27.5Q3 32.574 4.7939 36.9049Q6.58787 41.2361 10.1759 44.8241Q13.7639 48.4121 18.0951 50.2061Q22.426 52 27.5 52Q32.574 52 36.9049 50.2061Q41.2361 48.4121 44.8241 44.8241Q48.4121 41.2361 50.2061 36.9049Q52 32.574 52 27.5Q52 22.4258 50.206 18.0947Q48.412 13.7638 44.8241 10.1759Q41.2361 6.58787 36.9049 4.7939ZM3.5 27.5C3.5 14.2452 14.2451 3.5 27.5 3.5C40.7549 3.5 51.5 14.2452 51.5 27.5C51.5 40.7548 40.7549 51.5 27.5 51.5C14.2451 51.5 3.5 40.7548 3.5 27.5ZM32.9817 30.9958L25.2305 38.7141C24.9961 38.9462 24.8101 39.2225 24.683 39.5269C24.556 39.8313 24.4907 40.1578 24.4907 40.4875C24.4907 40.8173 24.556 41.1438 24.683 41.4482C24.8101 41.7526 24.9961 42.0289 25.2305 42.2611C25.463 42.4952 25.7396 42.6811 26.0444 42.8079C26.3491 42.9347 26.676 43 27.0062 43C27.3364 43 27.6633 42.9347 27.968 42.8079C28.2728 42.6811 28.5494 42.4952 28.782 42.2611L41.2871 29.7714C41.5149 29.5338 41.6934 29.2537 41.8124 28.9471C42.0625 28.3389 42.0625 27.6568 41.8124 27.0486C41.6934 26.742 41.5149 26.4619 41.2871 26.2243L28.782 13.7346C28.5488 13.5017 28.272 13.317 27.9673 13.1909C27.6626 13.0649 27.3361 13 27.0062 13C26.3402 13 25.7014 13.2643 25.2305 13.7346C24.9973 13.9675 24.8124 14.244 24.6862 14.5483C24.5599 14.8527 24.495 15.1788 24.495 15.5082C24.495 16.1733 24.7595 16.8113 25.2305 17.2817L32.9817 24.9999L33.4839 25.4999L14.5011 25.4999C13.8378 25.4999 13.2015 25.7631 12.7325 26.2316C12.2635 26.7 12 27.3354 12 27.9979C12 28.6603 12.2635 29.2957 12.7325 29.7642C13.2015 30.2326 13.8378 30.4958 14.5011 30.4958L33.4839 30.4958L32.9817 30.9958ZM28.4286 14.0884L40.929 26.5733Q41.0661 26.7169 41.1705 26.8812Q41.2746 27.0451 41.3463 27.2296Q41.5108 27.6297 41.505 28.0272Q41.4996 28.3931 41.35 28.7569Q41.2528 29.007 41.1004 29.217Q41.0208 29.3267 40.9261 29.4254L28.4286 41.9073Q28.2785 42.0585 28.1041 42.1728Q27.9496 42.274 27.776 42.3463Q27.5916 42.423 27.3995 42.4614Q27.2067 42.5 27.0062 42.5Q26.8058 42.5 26.613 42.4614Q26.4209 42.423 26.2365 42.3463Q26.0505 42.2689 25.8867 42.1585Q25.7252 42.0497 25.5853 41.9088Q25.4214 41.7464 25.301 41.5565Q25.2105 41.4139 25.1445 41.2557Q25.0675 41.0712 25.0291 40.8789Q24.9907 40.6871 24.9907 40.4875Q24.9907 40.2885 25.0289 40.097Q25.0674 39.9043 25.1445 39.7194Q25.2208 39.5366 25.3291 39.3752Q25.4392 39.2111 25.5824 39.0693L34.6947 29.9958L14.5011 29.9958Q14.0854 29.9958 13.7308 29.8486Q13.3781 29.7023 13.0858 29.4104Q12.7922 29.1171 12.6457 28.7629Q12.5 28.4105 12.5 27.9979Q12.5 27.5852 12.6457 27.2328Q12.7922 26.8786 13.0858 26.5853Q13.3781 26.2934 13.7308 26.1471Q14.0854 25.9999 14.5011 25.9999L34.6947 25.9999L25.5833 16.9274Q25.2893 16.6338 25.1423 16.2792Q24.995 15.9242 24.995 15.5082Q24.995 15.3088 25.0331 15.1171Q25.0713 14.9247 25.1479 14.7399Q25.2239 14.5567 25.3319 14.3949Q25.4414 14.2307 25.5839 14.0884Q25.8776 13.795 26.2321 13.6479Q26.5885 13.5 27.0062 13.5Q27.2064 13.5 27.3989 13.5383Q27.5913 13.5765 27.7761 13.653Q27.9623 13.73 28.1265 13.8399Q28.2882 13.9482 28.4286 14.0884Z" clip-rule="evenodd" fill="#E8FECB" fill-opacity="1.000000" fill-rule="evenodd"/>
</svg>
