<svg width="22.000000" height="13.000000" viewBox="0 0 22 13" fill="none" xmlns="http://www.w3.org/2000/svg" xmlns:xlink="http://www.w3.org/1999/xlink">
	<desc>
			Created with Pixso.
	</desc>
	<defs/>
	<path id="Vector" d="M21.36 0.62C20.51 -0.21 19.25 -0.21 18.4 0.62L11 7.96L3.59 0.62C2.75 -0.21 1.48 -0.21 0.63 0.62C-0.22 1.46 -0.22 2.72 0.63 3.56L9.51 12.37C9.94 12.79 10.36 13 11 13C11.63 13 12.05 12.79 12.48 12.37L21.36 3.56C22.21 2.72 22.21 1.46 21.36 0.62Z" fill="#7BFF5A" fill-opacity="1.000000" fill-rule="nonzero"/>
	<path id="Vector" d="M11 7.96L3.59 0.62C2.75 -0.21 1.48 -0.21 0.63 0.62C-0.22 1.46 -0.22 2.72 0.63 3.56L9.51 12.37C9.94 12.79 10.36 13 11 13C11.63 13 12.05 12.79 12.48 12.37L21.36 3.56C22.21 2.72 22.21 1.46 21.36 0.62C20.51 -0.21 19.25 -0.21 18.4 0.62L11 7.96ZM11 9.37L19.1 1.33Q19.33 1.1 19.61 1.03Q19.74 1 19.88 1Q20.02 1 20.15 1.03Q20.43 1.1 20.66 1.33Q20.89 1.57 20.96 1.85Q21 1.97 21 2.09Q21 2.22 20.96 2.34Q20.89 2.61 20.66 2.85L11.77 11.66Q11.58 11.85 11.41 11.92Q11.25 12 11 12Q10.74 12 10.58 11.92Q10.41 11.85 10.22 11.66L1.33 2.85Q1.1 2.61 1.03 2.34Q1 2.22 1 2.09Q1 1.97 1.03 1.85Q1.1 1.57 1.33 1.33Q1.56 1.1 1.84 1.03Q1.97 1 2.11 1Q2.25 1 2.38 1.03Q2.66 1.1 2.89 1.33L11 9.37Z" fill="#F9F9F9" fill-opacity="1.000000" fill-rule="evenodd"/>
</svg>
