<svg width="19.000000" height="19.000000" viewBox="0 0 19 19" fill="none" xmlns="http://www.w3.org/2000/svg" xmlns:xlink="http://www.w3.org/1999/xlink">
	<desc>
			Created with Pixso.
	</desc>
	<defs/>
	<path id="Vector" d="M11.39 15.21C11.65 15.21 11.89 15.11 12.07 14.93C12.25 14.75 12.35 14.51 12.35 14.26L12.35 12.37C12.35 12.12 12.25 11.87 12.07 11.7C11.89 11.52 11.65 11.42 11.39 11.42C11.14 11.42 10.9 11.52 10.72 11.7C10.54 11.87 10.44 12.12 10.44 12.37L10.44 14.26C10.44 14.51 10.54 14.75 10.72 14.93C10.9 15.11 11.14 15.21 11.39 15.21ZM7.58 15.21C7.83 15.21 8.07 15.11 8.25 14.93C8.43 14.75 8.53 14.51 8.53 14.26L8.53 12.37C8.53 12.12 8.43 11.87 8.25 11.7C8.07 11.52 7.83 11.42 7.58 11.42C7.33 11.42 7.08 11.52 6.9 11.7C6.73 11.87 6.63 12.12 6.63 12.37L6.63 14.26C6.63 14.51 6.73 14.75 6.9 14.93C7.08 15.11 7.33 15.21 7.58 15.21ZM16.16 3.84L14.84 3.84L13.19 0.58C13.14 0.46 13.07 0.35 12.97 0.26C12.88 0.17 12.77 0.1 12.64 0.05C12.52 0.01 12.39 -0.01 12.26 0C12.13 0 12 0.04 11.88 0.1C11.77 0.16 11.66 0.24 11.58 0.34C11.5 0.44 11.43 0.55 11.4 0.68C11.36 0.8 11.35 0.94 11.37 1.07C11.39 1.19 11.43 1.32 11.5 1.43L12.71 3.84L6.26 3.84L7.47 1.43C7.57 1.21 7.57 0.96 7.49 0.74C7.4 0.51 7.24 0.33 7.02 0.22C6.81 0.11 6.56 0.09 6.33 0.16C6.1 0.22 5.9 0.37 5.78 0.58L4.13 3.84L2.81 3.84C2.14 3.85 1.49 4.1 0.98 4.54C0.47 4.98 0.13 5.58 0.03 6.24C-0.08 6.9 0.06 7.58 0.41 8.15C0.76 8.73 1.3 9.16 1.93 9.37L2.64 16.44C2.71 17.14 3.04 17.79 3.57 18.27C4.1 18.74 4.79 19 5.5 19L13.49 19C14.2 19 14.89 18.74 15.42 18.27C15.95 17.79 16.28 17.14 16.35 16.44L17.06 9.37C17.7 9.16 18.24 8.72 18.59 8.15C18.93 7.57 19.07 6.9 18.96 6.23C18.85 5.57 18.51 4.97 18 4.53C17.49 4.09 16.84 3.85 16.16 3.84ZM14.43 16.25C14.41 16.48 14.3 16.7 14.12 16.86C13.95 17.02 13.72 17.1 13.48 17.1L5.49 17.1C5.25 17.1 5.02 17.02 4.85 16.86C4.67 16.7 4.56 16.48 4.54 16.25L3.86 9.53L15.11 9.53L14.43 16.25ZM16.16 7.63L2.81 7.63C2.56 7.63 2.32 7.53 2.14 7.35C1.96 7.18 1.86 6.94 1.86 6.69C1.86 6.43 1.96 6.19 2.14 6.02C2.32 5.84 2.56 5.74 2.81 5.74L16.16 5.74C16.41 5.74 16.66 5.84 16.83 6.02C17.01 6.19 17.11 6.43 17.11 6.69C17.11 6.94 17.01 7.18 16.83 7.35C16.66 7.53 16.41 7.63 16.16 7.63Z" fill="#000000" fill-opacity="1.000000" fill-rule="nonzero"/>
</svg>
