<svg width="19.000000" height="23.000000" viewBox="0 0 19 23" fill="none" xmlns="http://www.w3.org/2000/svg" xmlns:xlink="http://www.w3.org/1999/xlink">
	<desc>
			Created with Pixso.
	</desc>
	<defs/>
	<path id="Vector" d="M19 6.22C18.99 6.19 18.99 6.16 19 6.13C18.99 6.1 18.99 6.08 19 6.05L19 5.95L18.93 5.78C18.9 5.73 18.87 5.69 18.83 5.66L18.73 5.57L18.67 5.57L14.24 2.76L10.05 0.18C9.95 0.1 9.84 0.04 9.72 0.01L9.63 0.01C9.53 -0.01 9.43 -0.01 9.33 0.01L9.22 0.01C9.09 0.04 8.96 0.09 8.85 0.15L0.44 5.39L0.34 5.46L0.24 5.55L0.13 5.63L0.07 5.7L0 5.87L0 5.97L0 6.04C-0.01 6.11 -0.01 6.19 0 6.26L0 16.09C0 16.28 0.05 16.46 0.14 16.63C0.24 16.8 0.37 16.94 0.53 17.04L8.97 22.26L9.14 22.33L9.23 22.33C9.42 22.39 9.62 22.39 9.81 22.33L9.9 22.33L10.07 22.26L18.44 17.12C18.61 17.02 18.74 16.88 18.83 16.71C18.92 16.54 18.97 16.36 18.97 16.16L18.97 6.34C18.97 6.34 19 6.26 19 6.22ZM9.44 2.45L11.45 3.69L5.16 7.58L3.14 6.34L9.44 2.45ZM8.32 19.33L2.13 15.55L2.13 8.36L8.32 12.18L8.32 19.33ZM9.44 10.2L7.29 8.91L13.58 5L15.74 6.34L9.44 10.2ZM16.76 15.51L10.57 19.36L10.57 12.18L16.76 8.36L16.76 15.51Z" fill="#000000" fill-opacity="1.000000" fill-rule="nonzero"/>
</svg>
