<svg width="55.000000" height="55.000000" viewBox="0 0 55 55" fill="none" xmlns="http://www.w3.org/2000/svg" xmlns:xlink="http://www.w3.org/1999/xlink">
	<desc>
			Created with Pixso.
	</desc>
	<defs/>
	<path id="Union" d="M27.5 0C12.3122 0 0 12.3122 0 27.5C0 42.6879 12.3122 55 27.5 55C42.6879 55 55 42.6879 55 27.5C55 12.3122 42.6879 0 27.5 0ZM27.5 4C14.5213 4 4 14.5213 4 27.5C4 33.5275 6.26923 39.025 10 43.1847L10 20.2C10 19.6165 10.2305 19.0569 10.6407 18.6443C11.051 18.2318 11.6074 18 12.1875 18L18.75 18L18.75 15.8C18.75 13.4661 19.6719 11.2278 21.3128 9.57745C22.9537 7.92712 25.1794 7 27.5 7C29.8206 7 32.0463 7.92712 33.6872 9.57745C35.3281 11.2278 36.25 13.4661 36.25 15.8L36.25 18L42.8125 18C43.3926 18 43.949 18.2318 44.3593 18.6443C44.7695 19.0569 45 19.6165 45 20.2L45 43.1847C48.7308 39.025 51 33.5275 51 27.5C51 14.5213 40.4787 4 27.5 4ZM40.625 46.9961L40.625 22.4L36.25 22.4L36.25 24.6C36.25 25.1835 36.0195 25.743 35.6093 26.1556C35.199 26.5682 34.6426 26.8 34.0625 26.8C33.4824 26.8 32.926 26.5682 32.5157 26.1556C32.1055 25.743 31.875 25.1835 31.875 24.6L31.875 22.4L23.125 22.4L23.125 24.6C23.125 25.1835 22.8945 25.743 22.4843 26.1556C22.074 26.5682 21.5176 26.8 20.9375 26.8C20.3574 26.8 19.801 26.5682 19.3907 26.1556C18.9805 25.743 18.75 25.1835 18.75 24.6L18.75 22.4L14.375 22.4L14.375 46.9961C18.1229 49.5242 22.6391 51 27.5 51C32.3609 51 36.8771 49.5242 40.625 46.9961ZM24.4064 12.6887C23.5859 13.5139 23.125 14.6331 23.125 15.8L23.125 18L31.875 18L31.875 15.8C31.875 14.6331 31.4141 13.5139 30.5936 12.6887C29.7731 11.8636 28.6603 11.4 27.5 11.4C26.3397 11.4 25.2269 11.8636 24.4064 12.6887Z" clip-rule="evenodd" fill="#000000" fill-opacity="1.000000" fill-rule="evenodd"/>
</svg>
