<svg width="24" height="18" viewBox="0 0 24 18" fill="none" xmlns="http://www.w3.org/2000/svg">
<path d="M23.4502 0.520894C23.2915 0.355841 23.1026 0.224833 22.8945 0.135431C22.6864 0.0460284 22.4632 0 22.2378 0C22.0123 0 21.7891 0.0460284 21.581 0.135431C21.3729 0.224833 21.184 0.355841 21.0253 0.520894L8.30279 13.6578L2.95763 8.12832C2.7928 7.96413 2.59822 7.83502 2.385 7.74837C2.17179 7.66173 1.94411 7.61923 1.71497 7.62332C1.48582 7.62741 1.2597 7.678 1.04952 7.7722C0.839339 7.8664 0.649207 8.00237 0.489982 8.17234C0.330757 8.34231 0.205558 8.54296 0.121531 8.76283C0.0375047 8.9827 -0.00370326 9.21748 0.000261141 9.45376C0.00422555 9.69005 0.0532845 9.92322 0.144636 10.14C0.235988 10.3567 0.367844 10.5528 0.532675 10.717L7.09031 17.4791C7.24906 17.6442 7.43794 17.7752 7.64604 17.8646C7.85414 17.954 8.07735 18 8.30279 18C8.52822 18 8.75143 17.954 8.95953 17.8646C9.16763 17.7752 9.35651 17.6442 9.51526 17.4791L23.4502 3.10953C23.6236 2.94463 23.7619 2.74449 23.8565 2.52173C23.9511 2.29897 24 2.05841 24 1.81521C24 1.57202 23.9511 1.33146 23.8565 1.1087C23.7619 0.885934 23.6236 0.685796 23.4502 0.520894Z" fill="black"/>
</svg>
