<svg width="24.000000" height="24.000000" viewBox="0 0 24 24" fill="none" xmlns="http://www.w3.org/2000/svg" xmlns:xlink="http://www.w3.org/1999/xlink">
	<desc>
			Created with Pixso.
	</desc>
	<defs/>
	<path id="Vector" d="M20.39 4.8L16.79 4.8L16.79 3.6C16.79 2.96 16.54 2.35 16.09 1.9C15.64 1.45 15.03 1.2 14.39 1.2L9.6 1.2C9.35 1.2 9.1 1.24 8.86 1.32C8.71 1.37 8.57 1.45 8.45 1.55C8.33 1.65 8.23 1.78 8.16 1.92C8.09 2.06 8.05 2.22 8.04 2.37C8.03 2.53 8.05 2.69 8.1 2.84C8.2 3.14 8.41 3.39 8.69 3.53C8.97 3.67 9.3 3.69 9.6 3.6L14.39 3.6L14.39 4.8L12.79 4.8C12.47 4.8 12.16 4.92 11.94 5.15C11.71 5.37 11.59 5.68 11.59 6C11.59 6.32 11.71 6.62 11.94 6.85C12.16 7.07 12.47 7.2 12.79 7.2L20.39 7.2C20.71 7.2 21.01 7.32 21.24 7.55C21.46 7.77 21.59 8.08 21.59 8.4L21.59 9.93L18.51 10.96C18.36 11.01 18.22 11.09 18.1 11.2C17.98 11.3 17.88 11.43 17.81 11.57C17.74 11.71 17.7 11.86 17.69 12.02C17.68 12.18 17.7 12.34 17.75 12.49C17.83 12.72 17.98 12.93 18.19 13.08C18.39 13.22 18.64 13.3 18.89 13.3C19.02 13.3 19.15 13.28 19.27 13.24L21.59 12.46L21.59 16C21.59 16.32 21.72 16.62 21.94 16.85C22.17 17.07 22.47 17.2 22.79 17.2C23.11 17.2 23.41 17.07 23.64 16.85C23.86 16.62 23.99 16.32 23.99 16L23.99 8.4C23.99 7.44 23.61 6.53 22.93 5.85C22.26 5.18 21.34 4.8 20.39 4.8ZM2.05 0.35C1.94 0.24 1.81 0.15 1.66 0.09C1.51 0.03 1.36 0 1.2 0C1.04 0 0.88 0.03 0.74 0.09C0.59 0.15 0.46 0.24 0.35 0.35C0.12 0.57 0 0.88 0 1.2C0 1.52 0.12 1.83 0.35 2.05L3.14 4.8C2.27 4.91 1.47 5.34 0.89 6C0.31 6.66 -0.01 7.52 0 8.4L0 19.19C0 20.14 0.38 21.06 1.05 21.73C1.73 22.41 2.64 22.79 3.6 22.79L20.39 22.79C20.6 22.78 20.82 22.76 21.03 22.72L21.94 23.64C22.05 23.75 22.18 23.84 22.33 23.9C22.47 23.96 22.63 24 22.79 24C22.95 24 23.1 23.96 23.25 23.9C23.4 23.84 23.53 23.75 23.64 23.64C23.75 23.53 23.84 23.4 23.9 23.25C23.96 23.1 24 22.95 24 22.79C24 22.63 23.96 22.47 23.9 22.33C23.84 22.18 23.75 22.05 23.64 21.94L2.05 0.35ZM2.4 8.4C2.4 8.08 2.53 7.77 2.75 7.55C2.97 7.32 3.28 7.2 3.6 7.2L5.51 7.2L10.3 11.99L8.59 11.99L2.4 9.93L2.4 8.4ZM3.6 20.39C3.28 20.39 2.97 20.26 2.75 20.04C2.53 19.81 2.4 19.51 2.4 19.19L2.4 12.46L8.01 14.39C8.14 14.41 8.27 14.41 8.4 14.39L12.7 14.39L18.7 20.39L3.6 20.39Z" fill="#000000" fill-opacity="1.000000" fill-rule="nonzero"/>
</svg>
