<svg width="24.000000" height="21.000000" viewBox="0 0 24 21" fill="none" xmlns="http://www.w3.org/2000/svg" xmlns:xlink="http://www.w3.org/1999/xlink">
	<desc>
			Created with Pixso.
	</desc>
	<defs/>
	<path id="Vector" d="M13.55 10.46C14.19 9.9 14.7 9.22 15.06 8.45C15.41 7.68 15.59 6.84 15.59 5.99C15.59 4.4 14.96 2.88 13.83 1.75C12.71 0.63 11.18 0 9.59 0C8 0 6.48 0.63 5.35 1.75C4.23 2.88 3.59 4.4 3.59 5.99C3.59 6.84 3.78 7.68 4.13 8.45C4.48 9.22 4.99 9.9 5.63 10.46C3.95 11.22 2.53 12.44 1.53 13.99C0.53 15.54 0 17.35 0 19.19C0 19.51 0.12 19.81 0.35 20.04C0.57 20.26 0.88 20.39 1.19 20.39C1.51 20.39 1.82 20.26 2.04 20.04C2.27 19.81 2.39 19.51 2.39 19.19C2.39 17.28 3.15 15.45 4.5 14.1C5.85 12.75 7.68 11.99 9.59 11.99C11.5 11.99 13.33 12.75 14.68 14.1C16.03 15.45 16.79 17.28 16.79 19.19C16.79 19.51 16.92 19.81 17.14 20.04C17.37 20.26 17.67 20.39 17.99 20.39C18.31 20.39 18.61 20.26 18.84 20.04C19.06 19.81 19.19 19.51 19.19 19.19C19.19 17.35 18.65 15.54 17.66 13.99C16.66 12.44 15.23 11.22 13.55 10.46ZM9.59 9.59C8.88 9.59 8.18 9.38 7.59 8.99C7 8.59 6.54 8.03 6.27 7.37C5.99 6.71 5.92 5.99 6.06 5.29C6.2 4.59 6.54 3.95 7.05 3.45C7.55 2.95 8.19 2.6 8.89 2.46C9.59 2.32 10.31 2.4 10.97 2.67C11.63 2.94 12.19 3.4 12.58 3.99C12.98 4.59 13.19 5.28 13.19 5.99C13.19 6.95 12.81 7.86 12.14 8.54C11.46 9.21 10.55 9.59 9.59 9.59ZM22.68 10.19L23.64 9.24C23.75 9.13 23.84 9 23.9 8.85C23.96 8.71 23.99 8.55 23.99 8.39C23.99 8.23 23.96 8.08 23.9 7.93C23.84 7.79 23.75 7.65 23.64 7.54C23.53 7.43 23.4 7.34 23.25 7.28C23.1 7.22 22.95 7.19 22.79 7.19C22.63 7.19 22.47 7.22 22.33 7.28C22.18 7.34 22.05 7.43 21.94 7.54L20.99 8.5L20.04 7.54C19.93 7.43 19.8 7.34 19.65 7.28C19.5 7.22 19.35 7.19 19.19 7.19C18.87 7.19 18.56 7.31 18.34 7.54C18.23 7.65 18.14 7.79 18.08 7.93C18.02 8.08 17.99 8.23 17.99 8.39C17.99 8.71 18.11 9.02 18.34 9.24L19.3 10.19L18.34 11.14C18.23 11.25 18.14 11.38 18.08 11.53C18.01 11.68 17.98 11.83 17.98 11.99C17.98 12.15 18.01 12.31 18.08 12.45C18.14 12.6 18.23 12.73 18.34 12.84C18.45 12.96 18.58 13.05 18.73 13.11C18.87 13.17 19.03 13.2 19.19 13.2C19.35 13.2 19.5 13.17 19.65 13.11C19.8 13.05 19.93 12.96 20.04 12.84L20.99 11.88L21.94 12.84C22.05 12.96 22.18 13.05 22.33 13.11C22.47 13.17 22.63 13.2 22.79 13.2C22.95 13.2 23.1 13.17 23.25 13.11C23.4 13.05 23.53 12.96 23.64 12.84C23.75 12.73 23.84 12.6 23.9 12.45C23.96 12.31 24 12.15 24 11.99C24 11.83 23.96 11.68 23.9 11.53C23.84 11.38 23.75 11.25 23.64 11.14L22.68 10.19Z" fill="#000000" fill-opacity="1.000000" fill-rule="nonzero"/>
</svg>
