<svg width="30" height="30" viewBox="0 0 30 30" fill="none" xmlns="http://www.w3.org/2000/svg">
<path d="M25.5 12C25.1022 12 24.7206 12.158 24.4393 12.4393C24.158 12.7206 24 13.1022 24 13.5V18.57L21.78 16.35C20.9961 15.5723 19.9367 15.1359 18.8325 15.1359C17.7283 15.1359 16.6689 15.5723 15.885 16.35L14.835 17.415L11.115 13.68C10.3311 12.9023 9.27169 12.4659 8.1675 12.4659C7.06331 12.4659 6.00387 12.9023 5.22 13.68L3 15.915V7.5C3 7.10218 3.15804 6.72064 3.43934 6.43934C3.72064 6.15804 4.10218 6 4.5 6H16.5C16.8978 6 17.2794 5.84196 17.5607 5.56066C17.842 5.27936 18 4.89782 18 4.5C18 4.10218 17.842 3.72064 17.5607 3.43934C17.2794 3.15804 16.8978 3 16.5 3H4.5C3.30653 3 2.16193 3.47411 1.31802 4.31802C0.474106 5.16193 0 6.30653 0 7.5V25.83C0.00395258 26.9347 0.44456 27.9931 1.22573 28.7743C2.0069 29.5554 3.06526 29.996 4.17 30H22.83C23.2365 29.9968 23.6405 29.9362 24.03 29.82C24.8962 29.5771 25.6587 29.0566 26.2006 28.3386C26.7425 27.6206 27.0339 26.7446 27.03 25.845V13.5C27.03 13.3005 26.9903 13.1029 26.913 12.919C26.8358 12.735 26.7226 12.5683 26.5801 12.4286C26.4376 12.2889 26.2687 12.179 26.0832 12.1055C25.8978 12.0319 25.6995 11.996 25.5 12ZM4.5 27C4.10218 27 3.72064 26.842 3.43934 26.5607C3.15804 26.2794 3 25.8978 3 25.5V20.145L7.335 15.81C7.55423 15.592 7.85083 15.4696 8.16 15.4696C8.46917 15.4696 8.76577 15.592 8.985 15.81L20.19 27H4.5ZM24 25.5C23.9904 25.7905 23.8966 26.0719 23.73 26.31L16.95 19.5L18.015 18.45C18.1225 18.3402 18.2509 18.253 18.3926 18.1935C18.5342 18.134 18.6863 18.1033 18.84 18.1033C18.9937 18.1033 19.1458 18.134 19.2874 18.1935C19.4291 18.253 19.5575 18.3402 19.665 18.45L24 22.815V25.5ZM28.5 3H27V1.5C27 1.10218 26.842 0.720644 26.5607 0.43934C26.2794 0.158035 25.8978 0 25.5 0C25.1022 0 24.7206 0.158035 24.4393 0.43934C24.158 0.720644 24 1.10218 24 1.5V3H22.5C22.1022 3 21.7206 3.15804 21.4393 3.43934C21.158 3.72064 21 4.10218 21 4.5C21 4.89782 21.158 5.27936 21.4393 5.56066C21.7206 5.84196 22.1022 6 22.5 6H24V7.5C24 7.89782 24.158 8.27936 24.4393 8.56066C24.7206 8.84196 25.1022 9 25.5 9C25.8978 9 26.2794 8.84196 26.5607 8.56066C26.842 8.27936 27 7.89782 27 7.5V6H28.5C28.8978 6 29.2794 5.84196 29.5607 5.56066C29.842 5.27936 30 4.89782 30 4.5C30 4.10218 29.842 3.72064 29.5607 3.43934C29.2794 3.15804 28.8978 3 28.5 3Z" fill="black"/>
</svg>
