<svg width="24.000000" height="24.000000" viewBox="0 0 24 24" fill="none" xmlns="http://www.w3.org/2000/svg" xmlns:xlink="http://www.w3.org/1999/xlink">
	<desc>
			Created with Pixso.
	</desc>
	<defs/>
	<path id="Vector" d="M12 7.19C11.36 7.19 10.75 7.45 10.3 7.9C9.85 8.35 9.6 8.96 9.6 9.6C9.6 10.01 9.71 10.42 9.92 10.79C10.13 11.15 10.43 11.45 10.8 11.66L10.8 15.6C10.8 15.91 10.92 16.22 11.15 16.44C11.37 16.67 11.68 16.79 12 16.79C12.31 16.79 12.62 16.67 12.84 16.44C13.07 16.22 13.2 15.91 13.2 15.6L13.2 11.66C13.56 11.45 13.86 11.15 14.07 10.79C14.28 10.42 14.39 10.01 14.39 9.6C14.39 8.96 14.14 8.35 13.69 7.9C13.24 7.45 12.63 7.19 12 7.19ZM12 0C9.62 0 7.3 0.7 5.33 2.02C3.35 3.34 1.82 5.21 0.91 7.4C0 9.6 -0.24 12.01 0.23 14.34C0.69 16.66 1.83 18.8 3.51 20.48C5.19 22.16 7.33 23.3 9.65 23.76C11.98 24.23 14.39 23.99 16.59 23.08C18.78 22.17 20.65 20.64 21.97 18.66C23.29 16.69 24 14.37 24 12C24 10.42 23.68 8.86 23.08 7.4C22.48 5.95 21.59 4.62 20.48 3.51C19.37 2.4 18.04 1.51 16.59 0.91C15.13 0.31 13.57 0 12 0ZM12 21.6C10.1 21.6 8.24 21.03 6.66 19.98C5.08 18.92 3.85 17.42 3.13 15.67C2.4 13.91 2.21 11.98 2.58 10.12C2.95 8.26 3.86 6.55 5.21 5.21C6.55 3.86 8.26 2.95 10.12 2.58C11.98 2.21 13.91 2.4 15.67 3.13C17.42 3.85 18.92 5.08 19.98 6.66C21.03 8.24 21.6 10.1 21.6 12C21.6 14.54 20.58 16.98 18.78 18.78C16.98 20.58 14.54 21.6 12 21.6Z" fill="#000000" fill-opacity="1.000000" fill-rule="nonzero"/>
</svg>
