<svg width="40.000000" height="40.000000" viewBox="0 0 40 40" fill="none" xmlns="http://www.w3.org/2000/svg" xmlns:xlink="http://www.w3.org/1999/xlink">
	<desc>
			Created with Pixso.
	</desc>
	<defs/>
	<path id="Vector" d="M39.43 36.62L32.02 29.26C34.9 25.67 36.29 21.11 35.91 16.52C35.54 11.93 33.42 7.66 29.99 4.59C26.56 1.52 22.09 -0.12 17.49 0C12.89 0.13 8.52 2.01 5.26 5.27C2.01 8.52 0.13 12.9 0 17.51C-0.12 22.11 1.52 26.58 4.59 30.01C7.66 33.44 11.92 35.56 16.51 35.94C21.09 36.32 25.65 34.92 29.24 32.04L36.6 39.4C36.78 39.59 37 39.74 37.25 39.84C37.49 39.94 37.75 40 38.01 40C38.28 40 38.54 39.94 38.78 39.84C39.03 39.74 39.25 39.59 39.43 39.4C39.79 39.03 40 38.53 40 38.01C40 37.49 39.79 37 39.43 36.62ZM18.03 32.04C15.26 32.04 12.55 31.22 10.25 29.68C7.95 28.14 6.16 25.96 5.1 23.4C4.04 20.84 3.76 18.02 4.3 15.31C4.84 12.59 6.18 10.1 8.13 8.14C10.09 6.18 12.58 4.85 15.3 4.31C18.01 3.77 20.82 4.04 23.38 5.1C25.94 6.16 28.12 7.96 29.66 10.26C31.2 12.56 32.02 15.27 32.02 18.04C32.02 21.75 30.54 25.31 27.92 27.94C25.3 30.57 21.74 32.04 18.03 32.04Z" fill="#FFFFFF" fill-opacity="1.000000" fill-rule="nonzero"/>
</svg>
