<svg width="30.000000" height="38.000000" viewBox="0 0 30 38" fill="none" xmlns="http://www.w3.org/2000/svg" xmlns:xlink="http://www.w3.org/1999/xlink">
	<desc>
			Created with Pixso.
	</desc>
	<defs/>
	<path id="Vector" d="M0 18.75C0 19.24 0.19 19.72 0.54 20.07C0.9 20.42 1.37 20.62 1.87 20.62L16.1 20.62L11.79 24.91C11.61 25.09 11.47 25.3 11.38 25.52C11.28 25.75 11.23 26 11.23 26.25C11.23 26.49 11.28 26.74 11.38 26.97C11.47 27.19 11.61 27.4 11.79 27.58C11.96 27.75 12.17 27.89 12.4 27.99C12.63 28.08 12.87 28.13 13.12 28.13C13.37 28.13 13.61 28.08 13.84 27.99C14.07 27.89 14.28 27.75 14.45 27.58L21.95 20.08C22.12 19.9 22.26 19.69 22.35 19.46C22.53 19 22.53 18.49 22.35 18.03C22.26 17.8 22.12 17.59 21.95 17.41L14.45 9.91C14.28 9.74 14.07 9.6 13.84 9.51C13.61 9.41 13.37 9.36 13.12 9.36C12.87 9.36 12.63 9.41 12.4 9.51C12.17 9.6 11.96 9.74 11.79 9.91C11.61 10.09 11.48 10.3 11.38 10.52C11.29 10.75 11.24 11 11.24 11.25C11.24 11.49 11.29 11.74 11.38 11.97C11.48 12.19 11.61 12.4 11.79 12.58L16.1 16.87L1.87 16.87C1.37 16.87 0.9 17.07 0.54 17.42C0.19 17.77 0 18.25 0 18.75ZM24.37 0L5.62 0C4.13 0 2.7 0.59 1.64 1.64C0.59 2.7 0 4.13 0 5.62L0 11.25C0 11.74 0.19 12.22 0.54 12.57C0.9 12.92 1.37 13.12 1.87 13.12C2.37 13.12 2.84 12.92 3.2 12.57C3.55 12.22 3.75 11.74 3.75 11.25L3.75 5.62C3.75 5.12 3.94 4.65 4.29 4.29C4.65 3.94 5.12 3.75 5.62 3.75L24.37 3.75C24.87 3.75 25.34 3.94 25.7 4.29C26.05 4.65 26.25 5.12 26.25 5.62L26.25 31.87C26.25 32.37 26.05 32.84 25.7 33.2C25.34 33.55 24.87 33.75 24.37 33.75L5.62 33.75C5.12 33.75 4.65 33.55 4.29 33.2C3.94 32.84 3.75 32.37 3.75 31.87L3.75 26.25C3.75 25.75 3.55 25.27 3.2 24.92C2.84 24.57 2.37 24.37 1.87 24.37C1.37 24.37 0.9 24.57 0.54 24.92C0.19 25.27 0 25.75 0 26.25L0 31.87C0 33.36 0.59 34.79 1.64 35.85C2.7 36.9 4.13 37.5 5.62 37.5L24.37 37.5C25.86 37.5 27.29 36.9 28.35 35.85C29.4 34.79 30 33.36 30 31.87L30 5.62C30 4.13 29.4 2.7 28.35 1.64C27.29 0.59 25.86 0 24.37 0Z" fill="#000000" fill-opacity="1.000000" fill-rule="nonzero"/>
</svg>
