<svg width="169" height="51" viewBox="0 0 169 51" fill="none" xmlns="http://www.w3.org/2000/svg">
<path d="M156.497 49.1498H149.399L152.804 39.7025H146.138L137.41 15.7246H144.508L150.886 33.2764H155.154L161.484 15.7246H168.534L156.497 49.1498Z" fill="black"/>
<path d="M134.455 6.13342V39.7025H127.741V6.13342H134.455Z" fill="black"/>
<path d="M92.4766 15.7246H98.471L99.0945 18.7938C101.54 16.396 105.041 15.0052 109.069 15.0052C117.03 15.0052 123.024 20.4243 123.024 27.6656C123.024 35.0028 117.078 40.4218 109.069 40.4218C105.089 40.4218 101.636 39.0791 99.1904 36.6813V49.2937H92.4766V15.7246ZM116.311 27.6656C116.311 23.7332 112.666 20.9038 107.631 20.9038C102.595 20.9038 99.1904 23.6853 99.1904 27.6656C99.1904 31.6939 102.595 34.4753 107.631 34.4753C112.762 34.4753 116.311 31.598 116.311 27.6656Z" fill="black"/>
<path d="M79.7026 8.48324C79.7026 6.70887 80.9494 5.41406 82.8677 5.41406C84.69 5.41406 85.9368 6.70887 85.9368 8.48324C85.9368 10.4015 84.69 11.6004 82.8677 11.6004C80.9494 11.6004 79.7026 10.4015 79.7026 8.48324ZM86.2246 39.7025H79.5107V15.7246H86.2246V39.7025Z" fill="black"/>
<path d="M50.3325 22.4384V15.7246H72.9197V21.0477L59.7319 32.9887H73.639V39.7025H49.6611V34.3794L63.1847 22.4384H50.3325Z" fill="black"/>
<g filter="url(#filter0_d_142_665)">
<path fill-rule="evenodd" clip-rule="evenodd" d="M35.2141 42.3853L22.6402 30.8595L23.3109 26.4466L41.4951 18.3129L7.07854 4.81526L22.2194 16.9257L21.7167 21.4434L3.08847 30.0591L35.2141 42.3853ZM37.0467 46.5827L39.7261 42.1186L25.4934 29.0722L44.1588 20.7232L43.9966 15.7901L4.52658 0.310547L1.96676 4.88581L19.4496 18.8694L0.405273 27.6776L0.615337 32.6044L37.0467 46.5827Z" fill="black"/>
</g>
<defs>
<filter id="filter0_d_142_665" x="0.405273" y="0.310547" width="43.7539" height="50.2722" filterUnits="userSpaceOnUse" color-interpolation-filters="sRGB">
<feFlood flood-opacity="0" result="BackgroundImageFix"/>
<feColorMatrix in="SourceAlpha" type="matrix" values="0 0 0 0 0 0 0 0 0 0 0 0 0 0 0 0 0 0 127 0" result="hardAlpha"/>
<feOffset dy="4"/>
<feComposite in2="hardAlpha" operator="out"/>
<feColorMatrix type="matrix" values="0 0 0 0 0.458267 0 0 0 0 1 0 0 0 0 0.203333 0 0 0 0.25 0"/>
<feBlend mode="normal" in2="BackgroundImageFix" result="effect1_dropShadow_142_665"/>
<feBlend mode="normal" in="SourceGraphic" in2="effect1_dropShadow_142_665" result="shape"/>
</filter>
</defs>
</svg>
