<svg width="30.000000" height="37.000000" viewBox="0 0 30 37" fill="none" xmlns="http://www.w3.org/2000/svg" xmlns:xlink="http://www.w3.org/1999/xlink">
	<desc>
			Created with Pixso.
	</desc>
	<defs/>
	<path id="Vector" d="M28.12 9.25L22.5 9.25L22.5 7.39C22.5 5.43 21.7 3.55 20.3 2.16C18.89 0.77 16.98 0 15 0C13.01 0 11.1 0.77 9.69 2.16C8.29 3.55 7.5 5.43 7.5 7.39L7.5 9.25L1.87 9.25C1.37 9.25 0.9 9.44 0.54 9.79C0.19 10.13 0 10.6 0 11.1L0 31.45C0 32.92 0.59 34.33 1.64 35.37C2.7 36.41 4.13 37 5.62 37L24.37 37C25.86 37 27.29 36.41 28.35 35.37C29.4 34.33 30 32.92 30 31.45L30 11.1C30 10.6 29.8 10.13 29.45 9.79C29.09 9.44 28.62 9.25 28.12 9.25ZM11.25 7.39C11.25 6.41 11.64 5.47 12.34 4.78C13.05 4.08 14 3.69 15 3.69C15.99 3.69 16.94 4.08 17.65 4.78C18.35 5.47 18.75 6.41 18.75 7.39L18.75 9.25L11.25 9.25L11.25 7.39ZM26.25 31.45C26.25 31.94 26.05 32.41 25.7 32.75C25.34 33.1 24.87 33.3 24.37 33.3L5.62 33.3C5.12 33.3 4.65 33.1 4.29 32.75C3.94 32.41 3.75 31.94 3.75 31.45L3.75 12.95L7.5 12.95L7.5 14.8C7.5 15.29 7.69 15.76 8.04 16.1C8.4 16.45 8.87 16.64 9.37 16.64C9.87 16.64 10.34 16.45 10.7 16.1C11.05 15.76 11.25 15.29 11.25 14.8L11.25 12.95L18.75 12.95L18.75 14.8C18.75 15.29 18.94 15.76 19.29 16.1C19.65 16.45 20.12 16.64 20.62 16.64C21.12 16.64 21.59 16.45 21.95 16.1C22.3 15.76 22.5 15.29 22.5 14.8L22.5 12.95L26.25 12.95L26.25 31.45Z" fill="#000000" fill-opacity="1.000000" fill-rule="nonzero"/>
</svg>
