<svg width="55.000000" height="55.000000" viewBox="0 0 55 55" fill="none" xmlns="http://www.w3.org/2000/svg" xmlns:xlink="http://www.w3.org/1999/xlink">
	<desc>
			Created with Pixso.
	</desc>
	<defs/>
	<path id="Union" d="M55 27.5C55 42.6877 42.688 55 27.5 55C12.312 55 0 42.6877 0 27.5C0 12.3123 12.312 0 27.5 0C42.688 0 55 12.3123 55 27.5ZM42.0405 45.9629C38.04 49.1174 32.9897 51 27.5 51C22.0103 51 16.96 49.1174 12.9595 45.9629C13.0767 45.9873 13.1968 46 13.3184 46L41.6816 46C41.8032 46 41.9233 45.9873 42.0405 45.9629ZM43.3267 44.8718C43.4102 44.6604 43.4546 44.4324 43.4546 44.2L43.4546 24.0759C44.4893 23.7046 45.3853 23.0176 46.02 22.1086C46.6543 21.2 46.9971 20.114 47 19L47 14.3809C49.5259 18.1274 51 22.6416 51 27.5C51 34.3826 48.0415 40.574 43.3267 44.8718ZM11.6733 44.8718C11.5898 44.6604 11.5454 44.4324 11.5454 44.2L11.5454 24.0759C10.5107 23.7046 9.61475 23.0176 8.97998 22.1086C8.3457 21.2 8.00293 20.114 8 19L8 14.3809C5.47412 18.1274 4 22.6416 4 27.5C4 34.3826 6.9585 40.574 11.6733 44.8718ZM11.8154 10C15.9751 6.26929 21.4727 4 27.5 4C33.5273 4 39.0249 6.26929 43.1846 10L11.8154 10ZM12.0645 20.2727C12.397 20.6104 12.8481 20.8 13.3184 20.8C13.7886 20.8 14.2393 20.6104 14.5718 20.2727C14.9043 19.9353 15.0908 19.4773 15.0908 19L15.0908 13.6001L11.5454 13.6001L11.5454 19C11.5454 19.4773 11.7324 19.9353 12.0645 20.2727ZM22.1816 13.6001L18.6362 13.6001L18.6362 19C18.6362 19.4773 18.8232 19.9353 19.1558 20.2727C19.4878 20.6104 19.939 20.8 20.4092 20.8C20.8794 20.8 21.3301 20.6104 21.6626 20.2727C21.9951 19.9353 22.1816 19.4773 22.1816 19L22.1816 13.6001ZM29.2729 19L29.2729 13.6001L25.7271 13.6001L25.7271 19C25.7271 19.4773 25.9141 19.9353 26.2466 20.2727C26.5791 20.6104 27.0298 20.8 27.5 20.8C27.9702 20.8 28.4209 20.6104 28.7534 20.2727C29.0859 19.9353 29.2729 19.4773 29.2729 19ZM36.3638 13.6001L32.8184 13.6001L32.8184 19C32.8184 19.4773 33.0049 19.9353 33.3374 20.2727C33.6699 20.6104 34.1206 20.8 34.5908 20.8C35.061 20.8 35.5122 20.6104 35.8442 20.2727C36.1768 19.9353 36.3638 19.4773 36.3638 19L36.3638 13.6001ZM42.9355 20.2727C43.2676 19.9353 43.4546 19.4773 43.4546 19L43.4546 13.6001L39.9092 13.6001L39.9092 19C39.9092 19.4773 40.0957 19.9353 40.4282 20.2727C40.7607 20.6104 41.2114 20.8 41.6816 20.8C42.1519 20.8 42.603 20.6104 42.9355 20.2727ZM34.5908 42.3999L39.9092 42.3999L39.9092 24.0759C39.2573 23.8303 38.6562 23.4641 38.1362 22.9961C37.1611 23.8816 35.8989 24.3711 34.5908 24.3711C33.2827 24.3711 32.0205 23.8816 31.0454 22.9961C30.0703 23.8816 28.8081 24.3711 27.5 24.3711C26.1919 24.3711 24.9297 23.8816 23.9546 22.9961C22.9795 23.8816 21.7173 24.3711 20.4092 24.3711C19.1011 24.3711 17.8389 23.8816 16.8638 22.9961C16.3438 23.4641 15.7427 23.8303 15.0908 24.0759L15.0908 42.3999L20.4092 42.3999L20.4092 35.2C20.4092 33.2905 21.1562 31.459 22.4858 30.1089C23.8159 28.7585 25.6191 28 27.5 28C29.3809 28 31.1841 28.7585 32.5142 30.1089C33.8438 31.459 34.5908 33.2905 34.5908 35.2L34.5908 42.3999ZM23.9546 35.2L23.9546 42.3999L31.0454 42.3999L31.0454 35.2C31.0454 34.2451 30.6719 33.3296 30.0068 32.6543C29.3423 31.9792 28.4404 31.6001 27.5 31.6001C26.5596 31.6001 25.6577 31.9792 24.9932 32.6543C24.3281 33.3296 23.9546 34.2451 23.9546 35.2Z" clip-rule="evenodd" fill="#7BFF5A" fill-opacity="1.000000" fill-rule="evenodd"/>
</svg>
