<svg width="37.000000" height="36.000000" viewBox="0 0 37 36" fill="none" xmlns="http://www.w3.org/2000/svg" xmlns:xlink="http://www.w3.org/1999/xlink">
	<desc>
			Created with Pixso.
	</desc>
	<defs/>
	<path id="Vector" d="M36.93 13.61C36.82 13.27 36.6 12.97 36.32 12.74C36.04 12.52 35.7 12.38 35.34 12.35L24.83 10.79L20.12 1.06C19.97 0.74 19.73 0.47 19.44 0.28C19.15 0.09 18.81 0 18.46 0C18.11 0 17.77 0.09 17.48 0.28C17.18 0.47 16.95 0.74 16.8 1.06L12.08 10.77L1.57 12.35C1.23 12.4 0.91 12.55 0.64 12.77C0.38 13 0.18 13.3 0.08 13.63C-0.02 13.96 -0.03 14.31 0.05 14.64C0.13 14.97 0.3 15.27 0.54 15.51L8.17 23.04L6.32 33.74C6.25 34.09 6.29 34.45 6.42 34.79C6.55 35.12 6.77 35.41 7.06 35.62C7.34 35.82 7.67 35.94 8.01 35.97C8.35 35.99 8.7 35.91 9 35.75L18.46 30.72L27.88 35.77C28.14 35.92 28.43 36 28.73 36C29.12 36 29.5 35.87 29.82 35.64C30.11 35.43 30.33 35.14 30.46 34.81C30.59 34.47 30.63 34.11 30.56 33.75L28.71 23.06L36.34 15.53C36.61 15.3 36.81 15 36.91 14.66C37.01 14.32 37.02 13.96 36.93 13.61ZM25.57 21.14C25.35 21.36 25.19 21.62 25.1 21.91C25.01 22.2 24.98 22.52 25.04 22.82L26.37 30.71L19.42 26.94C19.15 26.8 18.85 26.72 18.55 26.72C18.25 26.72 17.95 26.8 17.68 26.94L10.74 30.71L12.07 22.82C12.12 22.52 12.1 22.2 12 21.91C11.91 21.62 11.75 21.36 11.53 21.14L5.99 15.5L13.77 14.35C14.06 14.3 14.35 14.19 14.59 14.01C14.84 13.83 15.04 13.59 15.17 13.31L18.46 6.14L21.93 13.33C22.06 13.61 22.26 13.85 22.51 14.03C22.75 14.21 23.04 14.32 23.34 14.37L31.11 15.51L25.57 21.14Z" fill="#000000" fill-opacity="1.000000" fill-rule="nonzero"/>
</svg>
