<svg width="55.000000" height="55.000000" viewBox="0 0 55 55" fill="none" xmlns="http://www.w3.org/2000/svg" xmlns:xlink="http://www.w3.org/1999/xlink">
	<desc>
			Created with Pixso.
	</desc>
	<defs/>
	<path id="Union" d="M27.5 55C42.6878 55 55 42.6878 55 27.5C55 12.3122 42.6878 0 27.5 0C12.3122 0 0 12.3122 0 27.5C0 42.6878 12.3122 55 27.5 55ZM46.1248 41.8325C49.1818 37.8658 51 32.8953 51 27.5C51 14.5213 40.4787 4 27.5 4C14.5213 4 4 14.5213 4 27.5C4 32.8922 5.8161 37.8603 8.87006 41.8259C9.54742 39.7901 10.5618 37.8704 11.8802 36.149C14.028 33.3445 16.9021 31.1713 20.1961 29.861C18.2737 28.3593 16.8706 26.3001 16.1819 23.9698C15.4932 21.6395 15.5531 19.1541 16.3533 16.8592C17.1536 14.5643 18.6544 12.5741 20.6469 11.1655C22.6395 9.75696 25.0246 9 27.4706 9C29.9166 9 32.3018 9.75696 34.2943 11.1655C36.2867 12.5741 37.7875 14.5643 38.5878 16.8592C39.3881 19.1541 39.448 21.6395 38.7593 23.9698C38.0706 26.3001 36.6674 28.3593 34.7451 29.861C38.0528 31.1643 40.9409 33.3369 43.0997 36.1457C44.4244 37.8691 45.4439 39.7924 46.1248 41.8325ZM43.1487 45.0322C42.5102 41.6338 40.5933 38.6749 37.9643 36.3415C35.0887 33.7892 31.3669 32.3782 27.5098 32.3782C23.6528 32.3782 19.9309 33.7892 17.0554 36.3415C14.3846 38.712 12.6076 41.7189 12.0231 45.1842C16.1573 48.8053 21.5724 51 27.5 51C33.5101 51 38.9932 48.7438 43.1487 45.0322ZM23.1132 27.1664C24.403 28.022 25.9194 28.4788 27.4706 28.4788C29.5507 28.4788 31.5457 27.6583 33.0165 26.1979C34.4874 24.7375 35.3137 22.7568 35.3137 20.6915C35.3137 19.1514 34.8538 17.6458 33.9919 16.3652C33.1301 15.0846 31.9052 14.0865 30.472 13.4971C29.0389 12.9077 27.4619 12.7535 25.9405 13.054C24.4191 13.3544 23.0215 14.0961 21.9247 15.1851C20.8278 16.2742 20.0808 17.6617 19.7781 19.1723C19.4755 20.6829 19.6309 22.2487 20.2245 23.6716C20.8181 25.0945 21.8234 26.3107 23.1132 27.1664Z" clip-rule="evenodd" fill="#000000" fill-opacity="1.000000" fill-rule="evenodd"/>
</svg>
